<?xml version="1.0" encoding="UTF-8" standalone="no"?>
<!-- Created with Inkscape (http://www.inkscape.org/) -->

<svg
   xmlns:dc="http://purl.org/dc/elements/1.1/"
   xmlns:cc="http://creativecommons.org/ns#"
   xmlns:rdf="http://www.w3.org/1999/02/22-rdf-syntax-ns#"
   xmlns:svg="http://www.w3.org/2000/svg"
   xmlns="http://www.w3.org/2000/svg"
   xmlns:sodipodi="http://sodipodi.sourceforge.net/DTD/sodipodi-0.dtd"
   xmlns:inkscape="http://www.inkscape.org/namespaces/inkscape"
   id="svg2"
   version="1.1"
   inkscape:version="0.48.3.1 r9886"
   width="221.867"
   height="284.090"
   xml:space="preserve"
   sodipodi:docname="logo_ENSTA.svg"><metadata
     id="metadata8"><rdf:RDF><cc:Work
         rdf:about=""><dc:format>image/svg+xml</dc:format><dc:type
           rdf:resource="http://purl.org/dc/dcmitype/StillImage" /><dc:title /></cc:Work></rdf:RDF></metadata><defs
     id="defs6"><clipPath
       clipPathUnits="userSpaceOnUse"
       id="clipPath22"><path
         d="m 344.248,237.32 134.97,0 0,163.814 -134.97,0 0,-163.814 z"
         id="path24"
         inkscape:connector-curvature="0" /></clipPath><clipPath
       clipPathUnits="userSpaceOnUse"
       id="clipPath38"><path
         d="m 0,595.28 841.89,0 L 841.89,0 0,0 0,595.28 z"
         id="path40"
         inkscape:connector-curvature="0" /></clipPath><clipPath
       clipPathUnits="userSpaceOnUse"
       id="clipPath50"><path
         d="m 344.248,237.32 134.97,0 0,163.814 -134.97,0 0,-163.814 z"
         id="path52"
         inkscape:connector-curvature="0" /></clipPath><clipPath
       clipPathUnits="userSpaceOnUse"
       id="clipPath66"><path
         d="m 0,595.28 841.89,0 L 841.89,0 0,0 0,595.28 z"
         id="path68"
         inkscape:connector-curvature="0" /></clipPath><clipPath
       clipPathUnits="userSpaceOnUse"
       id="clipPath78"><path
         d="m 344.248,237.32 134.97,0 0,163.814 -134.97,0 0,-163.814 z"
         id="path80"
         inkscape:connector-curvature="0" /></clipPath><clipPath
       clipPathUnits="userSpaceOnUse"
       id="clipPath102"><path
         d="m 0,595.28 841.89,0 L 841.89,0 0,0 0,595.28 z"
         id="path104"
         inkscape:connector-curvature="0" /></clipPath></defs><sodipodi:namedview
     pagecolor="#ffffff"
     bordercolor="#666666"
     borderopacity="1"
     objecttolerance="10"
     gridtolerance="10"
     guidetolerance="10"
     inkscape:pageopacity="0"
     inkscape:pageshadow="2"
     inkscape:window-width="1920"
     inkscape:window-height="1021"
     id="namedview4"
     showgrid="false"
     inkscape:zoom="1.7941374"
     inkscape:cx="36.29135"
     inkscape:cy="108.14611"
     inkscape:window-x="0"
     inkscape:window-y="27"
     inkscape:window-maximized="1"
     inkscape:current-layer="g10" /><g
     id="g10"
     inkscape:groupmode="layer"
     inkscape:label="logo_ENSTA_CMJN"
     transform="matrix(1.25,0,0,-1.25,0,284.09)"><path
       d="m 0,2.9296875e-6 177.4932,0 L 177.4932,227.272 0,227.272 0,2.9296875e-6 z"
       style="fill:#ffffff;fill-opacity:1;fill-rule:nonzero;stroke:none"
       id="path12"
       inkscape:connector-curvature="0" /><g
       id="g14"
       transform="matrix(0.99995606,0,0,0.99995606,76.61713,128.46555)"><path
         d="m 0,0 -54.858,0 15.31,89.072 55.147,0.006"
         style="fill:#113e70;fill-opacity:1;fill-rule:nonzero;stroke:none"
         id="path16"
         inkscape:connector-curvature="0" /></g><g
       id="g18"
       transform="matrix(0.99995606,0,0,0.99995606,-331.55342,-183.57692)"><g
         id="g20"
         clip-path="url(#clipPath22)"><g
           id="g26"
           transform="translate(409.5513,319.6255)"><path
             d="m 0,0 c -28.15,-0.933 -47.362,10.138 -44.329,26.98 3.033,16.841 27.308,33.795 56.53,40.612"
             style="fill:#ffffff;fill-opacity:1;fill-rule:nonzero;stroke:none"
             id="path28"
             inkscape:connector-curvature="0" /></g><g
           id="g30"
           transform="translate(422.3887,393.48)"><path
             d="M 0,0 C 34.037,4.606 59.834,-6.874 56.418,-25.842 53,-44.816 22.193,-63.931 -11.845,-68.537"
             style="fill:#113e70;fill-opacity:1;fill-rule:nonzero;stroke:none"
             id="path32"
             inkscape:connector-curvature="0" /></g></g></g><g
       id="g34"
       transform="matrix(0.99995606,0,0,0.99995606,-331.55342,-183.57692)"><g
         id="g36"
         clip-path="url(#clipPath38)"><g
           id="g42"
           transform="translate(421.0547,343.9004)"><path
             d="m 0,0 c 9.283,0 16.812,7.53 16.812,16.813 0,9.284 -7.529,16.813 -16.812,16.813 -9.289,0 -16.813,-7.529 -16.813,-16.813 C -16.813,7.53 -9.289,0 0,0"
             style="fill:#37acc3;fill-opacity:1;fill-rule:nonzero;stroke:none"
             id="path44"
             inkscape:connector-curvature="0" /></g></g></g><g
       id="g46"
       transform="matrix(0.99995606,0,0,0.99995606,-331.55342,-183.57692)"><g
         id="g48"
         clip-path="url(#clipPath50)"><g
           id="g54"
           transform="translate(347.6855,247.9629)"><path
             d="m 0,0 c 0.985,0 3.534,-0.229 5.308,0.07 5.542,0.918 8.399,2.723 8.399,6.678 0,3.953 -2.506,5.365 -10.127,5.365 l -7.017,0 0,-22.384 c 0.545,0.039 1.132,0.085 1.717,0.085 0.55,0 1.097,-0.046 1.72,-0.085 L 0,0 z M 0,10.834 C 1.175,10.896 3.971,10.932 5.662,10.801 8.771,10.57 10.107,8.807 10.107,6.58 10.107,3.674 7.824,1.615 3.891,1.287 2.557,1.184 0.985,1.184 0,1.287 l 0,9.547"
             style="fill:#7b7979;fill-opacity:1;fill-rule:nonzero;stroke:none"
             id="path56"
             inkscape:connector-curvature="0" /></g><g
           id="g58"
           transform="translate(372.2573,247.2988)"><path
             d="m 0,0 -0.63,-0.248 c -1.438,-0.564 -1.402,-0.498 -4.017,-1.059 -3.095,-0.668 -6.263,-1.058 -6.432,-4.582 -0.086,-2.22 2.24,-3.908 4.865,-4.05 2.574,-0.143 5.158,0.984 6.005,3.138 l 0,-2.72 5.162,0 0,0.605 -1.777,0 0,9.826 c 0,2.613 -0.469,5.045 -6.05,5.291 C -4.398,6.271 -4.778,6.133 -5.877,5.99 -7.148,5.814 -8.332,5.424 -9.177,5.107 l 0,-4.72 0.758,0 0.935,1.974 c 0.8,1.688 1.525,3.52 4.274,3.28 C -0.462,5.391 0,3.875 0,2.25 L 0,0 z m 0,-2.223 c 0,-0.92 0.048,-1.482 -0.082,-2.398 -0.291,-2.041 -1.901,-4.295 -4.565,-4.442 -2.244,-0.142 -3.305,1.624 -3.135,3.247 0.38,3.632 1.778,3.168 6.09,4.509 L 0,-0.781 0,-2.223"
             style="fill:#7b7979;fill-opacity:1;fill-rule:nonzero;stroke:none"
             id="path60"
             inkscape:connector-curvature="0" /></g></g></g><g
       id="g62"
       transform="matrix(0.99995606,0,0,0.99995606,-331.55342,-183.57692)"><g
         id="g64"
         clip-path="url(#clipPath66)"><g
           id="g70"
           transform="translate(386.8755,237.7773)"><path
             d="m 0,0 -7.663,0 0,0.605 1.907,0 0,14.098 -1.988,0 0,0.633 4.947,0 0,-3.213 c 0.215,1.164 1.984,3.322 4.78,3.322 0.802,0 1.524,-0.177 2.323,-0.533 l 0,-5.572 -0.799,0 -1.015,2.58 c -0.724,1.793 -1.271,2.951 -2.37,2.424 -2.878,-1.373 -2.619,-4.69 -2.619,-7.785 l 0,-5.954 2.497,0"
             style="fill:#7b7979;fill-opacity:1;fill-rule:nonzero;stroke:none"
             id="path72"
             inkscape:connector-curvature="0" /></g></g></g><g
       id="g74"
       transform="matrix(0.99995606,0,0,0.99995606,-331.55342,-183.57692)"><g
         id="g76"
         clip-path="url(#clipPath78)"><g
           id="g82"
           transform="translate(398.645,256.6719)"><path
             d="m 0,0 c 0,-0.988 -0.967,-1.691 -2.07,-1.691 -1.057,0 -2.033,0.777 -2.033,1.656 0,0.885 0.932,1.726 1.989,1.726 C -0.967,1.691 0,0.918 0,0 m -5.328,-18.898 0,0.609 1.945,0 0,14.098 -1.817,0 0,0.632 5.118,0 0,-14.73 1.734,0 0,-0.609 -6.98,0"
             style="fill:#7b7979;fill-opacity:1;fill-rule:nonzero;stroke:none"
             id="path84"
             inkscape:connector-curvature="0" /></g><g
           id="g86"
           transform="translate(412.9209,249.5176)"><path
             d="m 0,0 c -0.804,2.398 -1.608,3.346 -3.808,3.346 -1.902,0 -4.313,-0.631 -4.483,-2.573 -0.127,-1.724 2.028,-2.427 3.972,-2.957 3.298,-0.951 7.158,-1.941 7.023,-5.009 -0.082,-2.924 -3,-5.073 -6.978,-5.004 -2.285,0.039 -4.862,0.773 -5.753,1.306 l 0,5.041 0.763,0 0.889,-2.543 c 0.967,-2.857 2.07,-2.888 3.804,-3.031 2.416,-0.209 5.161,0.774 5.372,2.748 0.298,2.442 -3.593,3.067 -6.048,3.809 -1.734,0.531 -5.12,1.482 -5.12,4.373 0,3.383 4.402,4.515 6.726,4.515 1.949,0 4.193,-0.64 4.994,-1.058 l 0,-4.617 -0.801,0"
             style="fill:#7b7979;fill-opacity:1;fill-rule:nonzero;stroke:none"
             id="path88"
             inkscape:connector-curvature="0" /></g><g
           id="g90"
           transform="translate(425.2305,237.6289)"><path
             d="M 0,0 C -0.625,0.037 -1.168,0.047 -1.723,0.047 -2.305,0.047 -2.887,0.037 -3.436,0 l 0,20.896 c -3.97,0 -6.365,-0.201 -8.604,-0.394 0.038,0.324 0.14,0.65 0.14,0.98 0,0.317 -0.102,0.612 -0.14,0.965 l 20.253,0 C 8.166,22.094 8.117,21.799 8.117,21.482 c 0,-0.33 0.049,-0.656 0.096,-0.98 C 6.242,20.695 3.498,20.896 0,20.896"
             style="fill:#7b7979;fill-opacity:1;fill-rule:nonzero;stroke:none"
             id="path92"
             inkscape:connector-curvature="0" /></g><g
           id="g94"
           transform="translate(444.7969,243.4902)"><path
             d="m 0,0 -0.805,0 -0.041,-0.432 c -0.213,-2.115 -1.949,-5.138 -5.248,-4.964 -3.722,0.173 -4.525,3.417 -4.525,7.087 l 0,1.793 10.574,0 c 0.383,3.243 -2.322,6.664 -6.559,6.631 -4.353,-0.066 -7.318,-3.705 -7.566,-8 -0.258,-4.689 3.256,-8.32 7.828,-8.246 3.592,0.069 6.047,2.715 6.297,5.633 L 0,0 z m -10.275,6.059 c 0.293,1.701 1.648,3.314 3.507,3.39 2.243,0.106 3.084,-1.875 3.127,-3.633 l 0.047,-1.658 -7.025,0 0.344,1.901"
             style="fill:#7b7979;fill-opacity:1;fill-rule:nonzero;stroke:none"
             id="path96"
             inkscape:connector-curvature="0" /></g></g></g><g
       clip-path="url(#clipPath102)"
       id="g100"
       transform="matrix(0.99995606,0,0,0.99995606,-331.55342,-183.57692)"><g
         transform="translate(459.6562,247.334)"
         id="g106"><path
           inkscape:connector-curvature="0"
           id="path108"
           style="fill:#7b7979;fill-opacity:1;fill-rule:nonzero;stroke:none"
           d="M 0,0 -0.422,1.264 C -1.35,4.33 -2.449,5.711 -4.395,5.746 -8.502,5.814 -9.176,1.373 -9.09,-1.979 c 0.084,-3.097 0.418,-7.087 4.738,-7.119 2.538,-0.035 4.104,1.973 4.522,4.123 l 0.213,1.131 0.76,0 -0.123,-0.773 c -0.637,-4.059 -3.297,-5.326 -6.262,-5.289 -4.779,0.031 -7.487,4.191 -7.487,8.138 0,4.131 3.174,7.973 8.118,8.147 1.275,0.035 3.474,-0.072 5.42,-1.024 L 0.809,0" /></g><g
         transform="translate(471.9883,237.7773)"
         id="g110"><path
           inkscape:connector-curvature="0"
           id="path112"
           style="fill:#7b7979;fill-opacity:1;fill-rule:nonzero;stroke:none"
           d="m 0,0 0,0.605 2.24,0 0,10.108 c 0,2.01 0.041,4.021 -2.408,3.951 -3.553,-0.101 -4.021,-4.268 -4.021,-7.365 l 0,-6.694 2.41,0 0,-0.605 -7.405,0 0,0.605 1.78,0 0,19.561 -1.905,0 0,0.629 5.12,0 0,-7.998 c 0.511,1.342 2.664,2.965 4.949,2.783 3.424,-0.244 4.611,-1.441 4.611,-4.689 l 0,-10.286 1.863,0 0,-0.605" /></g><g
         transform="translate(369.8813,294.7793)"
         id="g114"><path
           inkscape:connector-curvature="0"
           id="path116"
           style="fill:#113e70;fill-opacity:1;fill-rule:nonzero;stroke:none"
           d="m 0,0 -14.963,0 -1.62,-9.244 12.065,0 -0.811,-4.604 -12.063,0 -1.58,-8.832 14.966,0 -0.812,-4.599 -19.569,0 5.631,31.884 19.568,0" /></g><g
         transform="translate(396.6997,267.4531)"
         id="g118"><path
           inkscape:connector-curvature="0"
           id="path120"
           style="fill:#113e70;fill-opacity:1;fill-rule:nonzero;stroke:none"
           d="M 0,0 -4.012,0 -16.076,23.367 -20.208,0 l -4.604,0 5.623,31.93 4.264,0 11.852,-23.319 4.136,23.319 4.604,0" /></g><g
         transform="translate(425.9824,289.4941)"
         id="g122"><path
           inkscape:connector-curvature="0"
           id="path124"
           style="fill:#113e70;fill-opacity:1;fill-rule:nonzero;stroke:none"
           d="m 0,0 c 0.471,2.771 -1.875,5.63 -6.264,5.63 -4.519,0 -7.72,-3.195 -8.102,-5.46 -1.149,-6.514 18.803,-1.445 16.843,-12.654 -0.942,-5.375 -7.081,-10.11 -13.561,-10.11 -6.053,0 -11.082,4.182 -10.017,10.233 l 4.602,0 c -0.469,-2.733 1.834,-5.625 6.226,-5.625 4.519,0 7.716,3.24 8.144,5.502 0.594,3.318 -5.029,3.283 -7.207,3.961 -4.476,1.406 -10.868,1.615 -9.636,8.693 0.941,5.377 7.079,10.065 13.517,10.065 C 0.639,10.235 5.672,6.1 4.604,0" /></g><g
         transform="translate(455.0996,294.7793)"
         id="g126"><path
           inkscape:connector-curvature="0"
           id="path128"
           style="fill:#113e70;fill-opacity:1;fill-rule:nonzero;stroke:none"
           d="m 0,0 -7.211,0 -4.852,-27.322 -4.609,0 4.865,27.322 -7.463,0 0.809,4.605 19.273,0" /></g><g
         transform="translate(469.1094,291.7129)"
         id="g130"><path
           inkscape:connector-curvature="0"
           id="path132"
           style="fill:#113e70;fill-opacity:1;fill-rule:nonzero;stroke:none"
           d="m 0,0 -6.908,-12.322 9.424,0 L 0,0 z m 5.029,-24.256 -1.619,7.629 -12.656,0 -4.221,-7.629 -4.992,0 17.867,31.927 3.963,0 6.479,-31.927 -4.821,0 z" /></g><g
         transform="translate(495.6895,247.3945)"
         id="g134"><path
           inkscape:connector-curvature="0"
           id="path136"
           style="fill:#37acc3;fill-opacity:1;fill-rule:nonzero;stroke:none"
           d="m 0,0 c -2.441,0 -4.416,-1.979 -4.416,-4.414 0,-2.44 1.975,-4.418 4.416,-4.418 2.441,0 4.416,1.978 4.416,4.418 C 4.416,-1.979 2.441,0 0,0" /></g><g
         transform="translate(486.1758,237.3945)"
         id="g138"><path
           inkscape:connector-curvature="0"
           id="path140"
           style="fill:#37acc3;fill-opacity:1;fill-rule:nonzero;stroke:none"
           d="m 0,0 c -1.512,0 -2.74,-1.217 -2.74,-2.725 0,-1.509 1.228,-2.734 2.74,-2.734 1.504,0 2.73,1.225 2.73,2.734 C 2.73,-1.217 1.504,0 0,0" /></g><g
         transform="translate(471.0898,205.3672)"
         id="g142"><path
           inkscape:connector-curvature="0"
           id="path144"
           style="fill:#113e70;fill-opacity:1;fill-rule:nonzero;stroke:none"
           d="M 0,0 -2.666,0 -5.258,-4.283 -7.799,0 l -2.748,0 4.102,-6.463 0,-4.205 2.341,0 0,4.248 L 0,0 z m -14.83,-6.203 -2.834,0 1.418,3.457 1.416,-3.457 z m 4.269,-4.465 -4.576,10.746 -2.164,0 -4.572,-10.746 2.393,0 0.978,2.393 4.506,0 0.984,-2.393 2.451,0 z m -13.302,0 0,2.129 -5.324,0 0,8.539 -2.354,0 0,-10.668 7.678,0 z m -10.692,1.723 -1.494,1.508 c -0.838,-0.764 -1.588,-1.254 -2.801,-1.254 -1.83,0 -3.093,1.527 -3.093,3.355 l 0,0.035 c 0,1.824 1.297,3.322 3.093,3.322 1.057,0 1.895,-0.46 2.723,-1.203 l 1.498,1.715 c -0.994,0.979 -2.197,1.651 -4.209,1.651 -3.279,0 -5.56,-2.485 -5.56,-5.52 l 0,-0.025 c 0,-3.067 2.328,-5.493 5.47,-5.493 2.059,0 3.28,0.733 4.373,1.909 m -15.75,2.742 -2.832,0 1.418,3.457 1.414,-3.457 z m 4.27,-4.465 -4.57,10.746 -2.166,0 -4.577,-10.746 2.399,0 0.972,2.393 4.514,0 0.971,-2.393 2.457,0 z m -13.355,3.156 0,0.032 c 0,1.855 -1.217,2.632 -3.383,3.197 -1.845,0.474 -2.303,0.699 -2.303,1.408 l 0,0.023 c 0,0.526 0.474,0.938 1.378,0.938 0.896,0 1.821,-0.404 2.768,-1.057 l 1.222,1.766 c -1.083,0.869 -2.413,1.359 -3.965,1.359 -2.184,0 -3.735,-1.277 -3.735,-3.218 l 0,-0.028 c 0,-2.119 1.391,-2.711 3.536,-3.26 1.782,-0.46 2.151,-0.763 2.151,-1.359 l 0,-0.031 c 0,-0.621 -0.578,-1.006 -1.54,-1.006 -1.221,0 -2.225,0.506 -3.188,1.297 l -1.385,-1.658 c 1.28,-1.147 2.91,-1.711 4.528,-1.711 2.303,0 3.916,1.185 3.916,3.308 m -10.896,2.68 -4.697,0 0,-2.23 4.697,0 0,2.23 z m -7.367,-2.68 0,0.032 c 0,1.855 -1.221,2.632 -3.377,3.197 -1.85,0.474 -2.308,0.699 -2.308,1.408 l 0,0.023 c 0,0.526 0.475,0.938 1.369,0.938 0.903,0 1.83,-0.404 2.777,-1.057 l 1.219,1.766 c -1.078,0.869 -2.409,1.359 -3.962,1.359 -2.184,0 -3.733,-1.277 -3.733,-3.218 l 0,-0.028 c 0,-2.119 1.38,-2.711 3.535,-3.26 1.789,-0.46 2.151,-0.763 2.151,-1.359 l 0,-0.031 c 0,-0.621 -0.584,-1.006 -1.539,-1.006 -1.222,0 -2.224,0.506 -3.185,1.297 l -1.396,-1.658 c 1.281,-1.147 2.917,-1.711 4.53,-1.711 2.302,0 3.919,1.185 3.919,3.308 M -89.175,0 l -2.348,0 0,-10.668 2.348,0 0,10.668 z m -8.093,-3.67 c 0,-0.898 -0.66,-1.514 -1.802,-1.514 l -2.376,0 0,3.067 2.329,0 c 1.15,0 1.849,-0.514 1.849,-1.522 l 0,-0.031 z m 2.695,-6.998 -2.609,3.809 c 1.359,0.507 2.286,1.584 2.286,3.308 l 0,0.028 C -94.896,-1.326 -96.4,0 -98.918,0 l -4.876,0 0,-10.668 2.348,0 0,3.41 1.845,0 2.288,-3.41 2.74,0 z m -16.279,4.465 -2.836,0 1.414,3.457 1.422,-3.457 z m 4.269,-4.465 -4.574,10.746 -2.166,0 -4.577,-10.746 2.398,0 0.975,2.393 4.514,0 0.975,-2.393 2.455,0 z m -14.589,6.908 c 0,-0.92 -0.686,-1.619 -1.861,-1.619 l -1.859,0 0,3.262 1.812,0 c 1.177,0 1.908,-0.565 1.908,-1.613 l 0,-0.03 z m 2.375,0.039 0,0.035 c 0,2.18 -1.536,3.686 -4.084,3.686 l -4.356,0 0,-10.668 2.345,0 0,3.199 1.784,0 c 2.393,0 4.311,1.282 4.311,3.748" /></g><path
         inkscape:connector-curvature="0"
         id="path146"
         style="fill:#113e70;fill-opacity:1;fill-rule:nonzero;stroke:none"
         d="m 383.572,210.76 2.938,0 0,16.539 -2.938,0 0,-16.539 z" /><g
         transform="translate(416.8926,227.6406)"
         id="g148"><path
           inkscape:connector-curvature="0"
           id="path150"
           style="fill:#113e70;fill-opacity:1;fill-rule:nonzero;stroke:none"
           d="m 0,0 c -4.531,0 -7.942,-3.709 -7.942,-8.627 0,-4.916 3.547,-8.621 8.247,-8.621 2.785,0 4.877,0.951 6.797,3.092 l 0.183,0.207 -1.89,1.691 -0.184,-0.191 c -1.414,-1.483 -2.953,-2.17 -4.844,-2.17 -2.797,0 -4.898,1.935 -5.309,4.849 l 12.608,0 0.031,0.247 C 7.729,-9.23 7.729,-8.977 7.729,-8.742 7.729,-3.518 4.619,0 0,0 m -4.942,-7.451 c 0.4,2.889 2.374,4.883 4.88,4.883 3.101,0 4.498,-2.465 4.791,-4.883 l -9.671,0 z" /></g><g
         transform="translate(355.3818,217.8672)"
         id="g152"><path
           inkscape:connector-curvature="0"
           id="path154"
           style="fill:#113e70;fill-opacity:1;fill-rule:nonzero;stroke:none"
           d="m 0,0 c 0,-2.777 -1.855,-4.725 -4.518,-4.725 -2.59,0 -4.139,1.698 -4.139,4.545 l 0,9.608 -2.934,0 0,-10.198 c 0,-4.054 2.509,-6.679 6.397,-6.679 2.173,0 3.881,0.83 5.194,2.519 l 0,-2.177 2.902,0 0,16.535 L 0,9.428 0,0 z" /></g><g
         transform="translate(371.8276,227.6406)"
         id="g156"><path
           inkscape:connector-curvature="0"
           id="path158"
           style="fill:#113e70;fill-opacity:1;fill-rule:nonzero;stroke:none"
           d="m 0,0 c -2.172,0 -3.916,-0.846 -5.2,-2.504 l 0,2.158 -2.929,0 0,-16.535 2.929,0 0,9.43 c 0,2.783 1.862,4.732 4.518,4.732 2.594,0 4.142,-1.701 4.142,-4.547 l 0,-9.615 2.939,0 0,10.203 C 6.399,-2.625 3.885,0 0,0" /></g><g
         transform="translate(398.812,214.498)"
         id="g160"><path
           inkscape:connector-curvature="0"
           id="path162"
           style="fill:#113e70;fill-opacity:1;fill-rule:nonzero;stroke:none"
           d="m 0,0 -5.193,12.801 -3.237,0 7.162,-16.66 2.467,0 7.196,16.66 -3.174,0 L 0,0 z" /></g><g
         transform="translate(431.791,223.9922)"
         id="g164"><path
           inkscape:connector-curvature="0"
           id="path166"
           style="fill:#113e70;fill-opacity:1;fill-rule:nonzero;stroke:none"
           d="m 0,0 0,3.303 -2.938,0 0,-16.535 2.938,0 0,6.644 c 0,4.287 2.381,7.051 6.061,7.051 l 0.457,0 0,3.111 -0.258,0.01 C 3.691,3.695 1.406,2.357 0,0" /></g><g
         transform="translate(470.7031,232.752)"
         id="g168"><path
           inkscape:connector-curvature="0"
           id="path170"
           style="fill:#113e70;fill-opacity:1;fill-rule:nonzero;stroke:none"
           d="m 0,0 -2.939,-1.623 0,-3.834 -3.102,0 0,-2.654 3.102,0 0,-9.369 c 0,-3.086 1.703,-4.791 4.794,-4.791 1.11,0 2.063,0.232 3,0.714 l 0.155,0.078 0,2.647 -0.403,-0.188 C 3.822,-19.396 3.191,-19.549 2.41,-19.549 0.764,-19.549 0,-18.797 0,-17.17 l 0,9.059 5.068,0 0,2.654 L 0,-5.457 0,0 z" /></g><g
         transform="translate(486.3496,227.6406)"
         id="g172"><path
           inkscape:connector-curvature="0"
           id="path174"
           style="fill:#113e70;fill-opacity:1;fill-rule:nonzero;stroke:none"
           d="m 0,0 c -4.529,0 -7.943,-3.709 -7.943,-8.627 0,-4.916 3.548,-8.621 8.25,-8.621 2.785,0 4.877,0.951 6.793,3.092 l 0.187,0.207 -1.891,1.691 -0.189,-0.191 c -1.408,-1.483 -2.949,-2.17 -4.834,-2.17 -2.797,0 -4.902,1.935 -5.312,4.849 l 12.607,0 0.031,0.247 C 7.732,-9.23 7.732,-8.977 7.732,-8.742 7.732,-3.518 4.623,0 0,0 m 4.729,-7.451 -9.668,0 c 0.396,2.889 2.373,4.883 4.878,4.883 3.1,0 4.495,-2.465 4.79,-4.883" /></g><g
         transform="translate(448.1953,220.4277)"
         id="g176"><path
           inkscape:connector-curvature="0"
           id="path178"
           style="fill:#113e70;fill-opacity:1;fill-rule:nonzero;stroke:none"
           d="m 0,0 -0.064,0.014 c -1.985,0.599 -3.85,1.172 -3.85,2.531 0,1.219 1.131,2.041 2.809,2.041 1.459,0 3.082,-0.539 4.58,-1.506 L 3.713,2.928 5.082,5.197 4.861,5.338 c -1.716,1.137 -3.918,1.807 -5.906,1.807 -3.365,0 -5.713,-1.991 -5.713,-4.85 l 0,-0.059 c 0,-3.222 3.174,-4.125 5.49,-4.785 2.137,-0.596 3.776,-1.16 3.776,-2.607 0,-1.352 -1.213,-2.254 -3.024,-2.254 -1.781,0 -3.634,0.687 -5.365,1.978 l -0.232,0.178 -1.52,-2.148 0.199,-0.159 c 1.844,-1.49 4.438,-2.414 6.791,-2.414 3.571,0 5.971,2.038 5.971,5.069 l 0,0.06 C 5.328,-1.598 2.117,-0.637 0,0" /></g><path
         inkscape:connector-curvature="0"
         id="path180"
         style="fill:#113e70;fill-opacity:1;fill-rule:nonzero;stroke:none"
         d="m 458.219,210.76 2.936,0 0,16.539 -2.936,0 0,-16.539 z" /></g></g></svg>
